<?xml version="1.0" standalone="no"?>
<!DOCTYPE svg PUBLIC "-//W3C//DTD SVG 20010904//EN"
 "http://www.w3.org/TR/2001/REC-SVG-20010904/DTD/svg10.dtd">
<svg version="1.0" xmlns="http://www.w3.org/2000/svg"
 width="256.000000pt" height="256.000000pt" viewBox="0 0 256.000000 256.000000"
 preserveAspectRatio="xMidYMid meet">

<g transform="translate(0.000000,256.000000) scale(0.100000,-0.100000)"
fill="#000000" stroke="none">
<path d="M254 1152 c-7 -4 -13 -46 -15 -102 -4 -90 -3 -95 16 -95 14 0 21 8
23 25 9 83 48 130 108 130 l24 0 -2 -267 -3 -267 -25 -6 c-14 -3 -26 -14 -28
-23 -3 -15 8 -17 106 -17 60 0 111 3 115 6 11 11 -5 34 -24 34 -35 0 -39 32
-39 289 l0 251 36 0 c52 0 91 -42 100 -109 5 -41 10 -51 25 -51 17 0 19 9 19
93 0 59 -4 97 -12 105 -13 13 -404 17 -424 4z"/>
<path d="M882 1134 c-66 -33 -125 -100 -153 -173 -28 -75 -24 -205 10 -269 33
-65 87 -118 147 -148 47 -23 63 -26 126 -22 44 2 89 11 113 23 56 28 113 88
143 154 22 47 27 70 26 141 0 94 -19 150 -74 220 -75 94 -230 128 -338 74z
m193 -37 c80 -45 133 -174 121 -292 -8 -82 -56 -178 -105 -211 -79 -52 -150
-39 -217 39 -92 109 -86 333 13 429 64 62 121 73 188 35z"/>
<path d="M1510 1139 c-58 -26 -115 -81 -148 -144 -24 -45 -27 -60 -27 -155 0
-95 3 -110 27 -155 90 -169 275 -216 430 -108 85 58 141 204 120 315 -22 118
-81 200 -176 244 -67 31 -161 32 -226 3z m180 -39 c77 -39 124 -137 124 -261
0 -77 -3 -93 -33 -153 -68 -139 -188 -164 -280 -60 -51 58 -73 125 -73 217 1
92 29 170 79 219 63 61 116 72 183 38z"/>
<path d="M1931 1151 c-19 -12 -7 -39 21 -43 32 -4 34 -28 28 -298 l-5 -234
-25 -6 c-14 -3 -26 -14 -28 -23 -3 -16 13 -17 196 -17 l199 0 6 93 c3 50 1 96
-3 101 -17 17 -40 -3 -40 -34 0 -47 -26 -99 -55 -110 -15 -6 -53 -10 -86 -10
l-59 0 0 251 c0 257 4 289 39 289 23 0 34 23 18 39 -13 13 -185 15 -206 2z"/>
</g>
</svg>
